<svg id="图层_1" data-name="图层 1" xmlns="http://www.w3.org/2000/svg" xmlns:xlink="http://www.w3.org/1999/xlink" viewBox="0 0 442.72 709.45"><defs><style>.cls-1{fill:none;}.cls-2{fill:#462f25;}.cls-3{fill:#5c3e31;}.cls-4{fill:#515151;}.cls-5{fill:#333;}.cls-6{fill:#ffddb8;}.cls-7{fill:#fff;}.cls-8{fill:#e0ecff;}.cls-9{fill:#e5c6a5;}.cls-10{fill:#f5d4b1;}.cls-11{clip-path:url(#clip-path);}</style><clipPath id="clip-path" transform="translate(-290 -157.47)"><rect class="cls-1" x="290" y="157" width="442.8" height="710.88"/></clipPath></defs><title>女职</title><path class="cls-2" d="M319.2,590l193,59.52v-492c-57,.24-152.08,34-171.28,164.24C310.72,527.8,319.2,590,319.2,590Zm0,0" transform="translate(-290 -157.47)"/><path class="cls-3" d="M705.28,590l-193,59.52v-492c57,.24,152.08,34,171.28,164.24C713.76,527.8,705.28,590,705.28,590Zm0,0" transform="translate(-290 -157.47)"/><path class="cls-4" d="M511.36,866.76H732.72s-11-152.56-162.16-176.32c-55.28-4-59.2-1.6-59.2-1.6Zm0,0" transform="translate(-290 -157.47)"/><path class="cls-5" d="M510.4,866.76H290s11-153,161.44-176.88c55-4,59-1.6,59-1.6Zm0,0" transform="translate(-290 -157.47)"/><rect x="165.12" y="425.93" width="116.08" height="205.76"/><rect class="cls-6" x="165.12" y="425.93" width="116.08" height="205.76"/><path class="cls-7" d="M508.72,866.6s25.28.16,37.2.16c5-7.84,63-161.68,62.56-164.16-.24-1.52-76.24,14.4-76.24,14.4l-23.52,24.88Zm0,0" transform="translate(-290 -157.47)"/><path class="cls-8" d="M511.12,866.76s-25.28.16-37.2.16c-5-7.84-63-161.52-62.56-163.92.24-1.52,78,14,78,14l21.76,25.28Zm0,0" transform="translate(-290 -157.47)"/><path class="cls-7" d="M571.2,659.24l62.72,20,29.84,75.92-132.08-37Zm0,0" transform="translate(-290 -157.47)"/><path class="cls-9" d="M455.12,579.8H571.2v36.08l-116.08,70.4Zm0,0" transform="translate(-290 -157.47)"/><path class="cls-7" d="M453.76,662,391.36,682l-29.68,75.76,131.44-37Zm0,0" transform="translate(-290 -157.47)"/><path class="cls-10" d="M346.72,398c-9.68,3.28-12.48,21.12-6.24,39.76s19.12,31.12,28.8,27.84,12.48-21.12,6.24-39.76S356.4,394.76,346.72,398Zm0,0" transform="translate(-290 -157.47)"/><path d="M677.6,398.84c9.68,3.28,12.48,20.8,6.24,39.2s-19.12,30.72-28.8,27.44-12.48-20.8-6.24-39.2,19.12-30.72,28.8-27.44Zm0,0" transform="translate(-290 -157.47)"/><path class="cls-6" d="M677.6,398.84c9.68,3.28,12.48,20.8,6.24,39.2s-19.12,30.72-28.8,27.44-12.48-20.8-6.24-39.2,19.12-30.72,28.8-27.44Zm0,0" transform="translate(-290 -157.47)"/><path class="cls-10" d="M511.36,262.2c-86.16,0-148.8,80.16-148.8,179,0,33.2,7.44,63.92,20.48,90.56,25.76,52.56,108.24,86.88,128.24,87.84.08-81.92.08-139.28.08-357.36Zm0,0" transform="translate(-290 -157.47)"/><g class="cls-11"><path class="cls-6" d="M510.56,262.2c86.16,0,148.8,80.16,148.8,179,0,33.2-7.44,63.92-20.48,90.56-25.84,52.56-108.32,86.8-128.32,87.84Zm0,0" transform="translate(-290 -157.47)"/><path class="cls-3" d="M565.76,256.76s-71.92,99.84-199.6,148c-28.4-49.52-21.76-87.6-21.76-106.48s38.8-140.8,163.28-140.8c23.76-.88,68,69.92,58.08,99.28Zm0,0" transform="translate(-290 -157.47)"/></g></svg>