<svg id="图层_1" data-name="图层 1" xmlns="http://www.w3.org/2000/svg" viewBox="0 0 487.6 709.12"><defs><style>.cls-1{fill:#ffddb8;}.cls-2{fill:#ebccaa;}.cls-3{fill:#f5d4b1;}.cls-4{fill:#634335;}.cls-5{fill:#333;}.cls-6{fill:#555;}.cls-7{fill:#fff;}.cls-8{fill:#e0ecff;}.cls-9{fill:#7fb2ff;}</style></defs><title>男职</title><path class="cls-1" d="M567.68,705.52,455.44,705V574.64H567.68Zm0,0" transform="translate(-268 -158)"/><path class="cls-2" d="M567.68,622.88,455.44,689V574.64H567.68Zm0,0" transform="translate(-268 -158)"/><path class="cls-3" d="M511.92,267.52c-.48,0-.88-.08-1.36-.08-82.4,0-154.64,80.24-154.64,179.28S454.48,626,510.56,626a8,8,0,0,0,1.36-.08Zm0,0" transform="translate(-268 -158)"/><path class="cls-1" d="M511.92,267.52c.48,0,.88-.08,1.36-.08,82.4,0,154.64,80.24,154.64,179.28S569.36,626,513.28,626a7.92,7.92,0,0,1-1.36-.08Zm0,0" transform="translate(-268 -158)"/><path class="cls-4" d="M338.64,396.16c-2.64-46.56-5.28-112.24,13.28-153.28S469,158,511.44,158s125,41,143.6,65.68c11,14.48,27.76,93.92,26.56,161.52-.8,47.52-8.24,65.84-15.92,79.36C661.84,471.36,671,377,585.92,303c-13.28-8.24-25.68,5.12-42.56,8.24-28.24,5.2-53.2,5.44-74.48,5.44-24.8,0-70.48,31.84-82.4,63-21.12,55-15.92,95.84-15.92,95.84s-29.28-32.8-31.92-79.36Zm0,0" transform="translate(-268 -158)"/><path class="cls-3" d="M337.67,448.84c6.76,21.63,21,36.43,31.87,33s14.14-23.67,7.38-45.3-21-36.43-31.87-33-14.15,23.67-7.38,45.3Zm0,0" transform="translate(-268 -158)"/><path class="cls-5" d="M511.68,680.88l-106.8,19.2s-68.4,30.08-87.6,60.24S268,867.12,268,867.12H511.6V680.88Zm0,0" transform="translate(-268 -158)"/><path class="cls-6" d="M511.92,680.88l106.8,19.2s68.4,30.08,87.6,60.24,49.28,106.8,49.28,106.8H511.92Zm0,0" transform="translate(-268 -158)"/><path class="cls-1" d="M651.6,476.4c10.84,3.39,25.1-11.41,31.87-33s3.46-41.92-7.38-45.3-25.1,11.4-31.87,33-3.45,41.92,7.38,45.3Zm0,0" transform="translate(-268 -158)"/><path class="cls-7" d="M608.32,693,554,866.88H513.28v-186Zm0,0" transform="translate(-268 -158)"/><path class="cls-8" d="M415.52,693l54.32,173.84h40.72v-186Zm0,0" transform="translate(-268 -158)"/><path class="cls-9" d="M498.24,784.88,452.72,683.6l57.44-2.72,60.24,2.72L523.84,784.88,532,867H491Zm0,0" transform="translate(-268 -158)"/><path class="cls-7" d="M448,642.4l63,38.32L406.88,762.88V680.72Zm125.92,0-63,38.32,104,82.16V680.72Zm0,0" transform="translate(-268 -158)"/></svg>